<svg width="486" height="394" viewBox="0 0 486 394" fill="none" xmlns="http://www.w3.org/2000/svg">
<path d="M228.993 86.3868C229.002 79.9865 229.06 73.5868 229.167 67.1875C229.191 63.727 228.69 54.2903 230.417 51.7878C233.694 50.8558 244.216 51.1398 248.228 51.0213L290.415 50.0593C309.218 49.4098 328.028 48.9108 346.838 48.5625C354.868 48.4245 362.988 48.2043 371.015 48.2813C372.5 48.2955 375.045 48.5578 376.15 49.583C377.058 50.4258 377.043 51.321 377.05 52.5065C377.083 58.3693 376.898 64.2323 376.828 70.0913C376.715 83.657 376.503 97.2218 376.193 110.785C375.975 122.041 375.74 133.288 375.633 144.546C375.603 147.51 375.108 149.023 371.763 149.177C365.965 149.444 360.103 149.168 354.295 149.087L320.53 148.663C321.013 151.502 322.028 153.995 322.42 157.017C325.345 156.973 327.915 157.353 330.808 157.711C330.91 158.044 331.395 159.849 331.798 159.871C336.268 160.115 340.788 159.97 345.27 160.007L389.698 160.708C394.598 160.806 404.065 160.513 408.563 161.047C408.89 163.171 408.748 166.723 408.705 168.95C406.91 169.445 405.375 169.787 403.563 170.168C403.9 172.888 403.708 181.737 403.7 184.79L403.595 215.391L403.59 283.265C403.588 293.19 403.58 303.125 403.645 313.048C403.593 313.915 403.69 315.128 403.145 315.823C402.148 317.09 398.928 317.118 397.758 316.105C397.37 315.48 397.118 314.875 397.148 314.125C397.303 310.35 397.25 306.56 397.253 302.78L397.255 274.975C397.255 240.859 397.67 205.886 397.178 171.844C389.935 173.454 382.713 175.145 375.508 176.915C370.513 178.138 364.725 179.706 359.76 180.61C359.243 193.994 359.638 210.825 359.635 224.367L359.598 300.11L359.623 325.6C359.623 327.93 359.993 338.168 359.138 339.643C357.593 340.935 354.985 340.778 353.453 339.518C352.913 339.075 352.848 337.72 352.843 337.05C352.793 331.058 352.823 325.06 352.83 319.068L352.863 284.37L352.885 180.488C338.42 179.919 323.34 179.882 308.835 179.703L268.135 178.934L246.492 178.317C242.784 178.217 238.522 178.335 234.886 178.075C234.815 187.85 234.802 197.626 234.847 207.401C246.186 204.055 259.218 200.307 270.995 199.447C275.335 199.227 279.623 200.349 282.815 203.352C286.658 206.895 288.18 213.068 288.845 218.164C291.52 238.696 292.213 259.535 293.558 280.183C294.138 289.068 295.02 297.81 295.288 306.728C294.488 307.265 293.278 307.928 292.833 308.705L293.005 309.305C295.498 311.998 304.443 313.485 308.24 313.943C313.74 314.51 318.028 315.07 318.49 321.665C317.07 326.078 306.365 329.053 302.073 329.303C295.775 329.668 291.925 332.81 285.985 333.728C282.045 334.338 274.3 334.68 273.983 329.1L273.903 328.635C273.345 324.523 273.623 320.343 274.715 316.34C275.11 314.928 276.01 313.483 275.975 312.235C275.565 311.578 272.603 310.535 271.748 310.185C270.793 307.393 270.418 304.028 269.828 301.135C268.358 293.928 267.68 286.67 266.48 279.46C265.358 272.715 262.888 265.648 262.053 258.785C261.305 252.628 261.465 247.127 260.07 240.992C258.655 241.57 257.253 242.279 255.873 242.951C256.803 244.072 257.678 245.271 256.898 246.73C255.258 249.79 249.742 251.953 246.669 253.163C249.398 255.105 251.223 257.145 252.278 260.405C254.163 266.233 255.453 272.278 256.885 278.238C258.943 286.66 260.943 295.1 262.89 303.55C264.733 311.51 266.815 319.568 268.283 327.553C268.64 331.15 267.43 337.618 263.983 339.385C260.603 341.123 256.953 342.173 253.455 343.385L237.43 349.058L218.506 355.798C214.545 357.24 210.68 358.713 206.617 360.003C202.234 361.57 197.76 359.51 195.727 355.363C193.239 350.285 195.915 341.858 196.937 336.428C198.573 327.533 200.323 318.658 202.185 309.808C204.774 297.04 206.863 281.548 210.776 269.45C202.867 271.02 198.292 271.71 190.121 272.218C191.735 284.24 194.829 296.145 196.671 308.183C197.671 314.718 200.888 324.74 194.955 329.903C194.182 330.575 192.523 331.188 191.526 331.525C181.063 335.055 170.435 338.115 159.925 341.508C152.053 343.915 144.256 346.59 136.359 348.905C129.461 350.928 125.077 344.805 126.289 338.503C127.053 334.533 128.26 330.84 129.417 326.99L135.227 307.838L142.558 283.073C143.772 278.953 144.927 274.87 146.326 270.803C147.675 266.878 149.207 265.39 152.556 262.983C141.884 257.528 133.896 249.525 130.372 237.909C126.874 226.378 127.246 212.813 124.63 200.905C123.455 195.559 122.128 190.812 120.622 185.588C118.517 178.286 116.64 173.117 122.457 167.374C116.268 154.746 107.931 146.286 98.4113 136.334C97.6865 135.576 97.695 133.83 97.6283 132.795C91.704 126.084 84.8053 119.035 79.6663 111.821C76.4088 106.894 73.572 100.416 74.8185 94.3968C75.5323 90.9508 77.6825 89.1405 81.0903 90.157C83.2263 90.794 86.4768 90.4865 88.7895 90.537C91.5558 90.5883 94.3123 90.882 97.0275 91.4145C101.688 92.3465 106.373 93.705 110.945 95.009C116.886 96.7038 121.399 98.5323 127.722 97.7C123.92 91.8323 120.51 82.7508 124.566 76.0233C125.112 75.1188 125.843 74.1338 126.445 73.2485C125.74 72.149 125.2 72.1735 124.977 71.1075L125.373 70.8355C126.113 71.0598 126.776 71.841 127.357 72.4065L127.791 71.3248C130.572 64.378 136.89 61.0943 143.94 59.8825C146.951 59.365 150.651 58.9645 153.535 58.14C155.301 57.6355 157.544 55.2628 159.568 54.4033C161.532 54.6308 160.883 57.1978 161.637 57.2763C168.895 58.0323 173.306 64.3403 167.888 71.759C171.972 77.1245 172.372 81.0723 173.641 87.338C174.207 90.1313 175.103 92.1593 175.494 95.3845C179.364 94.8168 183.974 93.7743 187.808 92.8933C202.234 89.5778 214.05 86.3603 228.993 86.3868Z" fill="#060505"/>
<path d="M274.395 327.68C274.442 324.485 274.24 317.925 276.212 315.045C276.362 314.825 281.85 315.948 282.752 315.988C284.47 316.073 286.19 315.83 287.817 315.268C290.472 314.333 291.767 312.973 292.972 310.515C296.945 312.69 301.75 314.165 306.275 314.428L306.315 314.24C306.787 313.85 307.5 313.968 308.24 313.943C313.74 314.51 318.027 315.07 318.49 321.665C317.07 326.078 306.365 329.053 302.072 329.303C295.775 329.668 291.925 332.81 285.985 333.728C282.045 334.338 274.3 334.68 273.982 329.1L273.902 328.635C274.02 327.828 273.825 328.113 274.395 327.68Z" fill="#545454"/>
<path d="M317.402 321.52L318.49 321.665C317.07 326.078 306.365 329.053 302.072 329.303C295.775 329.668 291.925 332.81 285.985 333.728C282.045 334.338 274.3 334.68 273.982 329.1L275.132 329.3L275.272 329.533C280.885 332 286.07 330.975 291.7 329.223C298.005 327.258 304.752 326.955 311.012 324.528C313.1 323.72 315.427 322.035 317.402 321.52Z" fill="#545454"/>
<path d="M317.402 321.52L318.49 321.665C317.07 326.078 306.365 329.053 302.072 329.303C295.775 329.668 291.925 332.81 285.985 333.728C282.045 334.338 274.3 334.68 273.982 329.1L275.132 329.3L275.272 329.533L274.922 329.935L275.092 330.553C278.432 334.24 288.017 332.913 291.92 330.945C295.962 328.91 298.51 328.853 302.745 328.098C305.922 327.53 316.775 324.923 317.402 321.52Z" fill="#060505"/>
<path d="M308.24 313.942C313.74 314.51 318.027 315.07 318.49 321.665L317.402 321.52C315.427 322.035 313.1 323.72 311.012 324.527C304.752 326.955 298.005 327.257 291.7 329.222C286.07 330.975 280.885 332 275.272 329.532L275.132 329.3L273.982 329.1L273.902 328.635C274.02 327.827 273.825 328.112 274.395 327.68C279.402 332.007 290.32 328.412 296.015 327.087C299.852 326.192 316.025 323.605 317.057 319.397C316.54 315.115 309.595 315.132 306.275 314.427L306.315 314.24C306.787 313.85 307.5 313.967 308.24 313.942Z" fill="#070607"/>
<path d="M138.811 164.605C143.992 164.005 149.754 164.506 154.944 164.905C163.036 165.526 171.315 166.939 178.185 171.558C194.762 182.705 202.39 216.735 209.201 235.139C211.53 241.431 214.272 248.908 220.25 252.62C228.009 257.438 240.764 250.383 248.037 246.867C250.168 245.836 252.42 244.48 254.733 243.96C262.728 246.368 238.367 256.03 236.753 256.76C224.396 262.203 214.597 265.21 201.198 266.568C183.59 268.35 158.529 268.395 144.089 256.588C132.625 247.215 129.525 235.155 128.413 221.195C127.974 215.682 126.522 205.959 125.495 200.682C124.696 196.708 123.707 192.774 122.532 188.894C117.03 170.06 118.083 166.324 138.811 164.605Z" fill="#F1CF72"/>
<path d="M300.192 60.248C310.11 59.8993 320.032 59.7088 329.955 59.6768C329.892 72.9013 329.457 86.047 329.472 99.2843C329.057 112.177 329.25 125.154 328.88 137.989L299.485 137.69L270.202 137.299C260.712 137.191 251.222 137.169 241.733 137.233C241.681 128.487 241.721 119.741 241.852 110.995C244.315 106.722 246.753 104.326 247.72 99.2518C248.336 93.7165 248.778 87.485 241.97 86.277C242.223 77.9303 242.354 69.5803 242.362 61.2295C251.422 61.4378 261.71 60.8268 270.932 60.7293C280.537 60.7565 290.54 60.3858 300.192 60.248Z" fill="#FAF8F7"/>
<path d="M300.193 60.248C310.11 59.8993 320.033 59.7088 329.955 59.6768C329.893 72.9013 329.458 86.047 329.473 99.2843C327.79 99.0873 321.718 99.2375 319.755 99.2455L299.795 99.2813C299.603 86.5423 300.24 73.1668 300.193 60.248Z" fill="#7AB673"/>
<path d="M299.795 99.2812L319.755 99.2454C321.718 99.2374 327.79 99.0872 329.473 99.2842C329.058 112.176 329.25 125.154 328.88 137.988L299.485 137.69L299.795 99.2812Z" fill="#728CC6"/>
<path d="M329.31 99.2812L349.27 99.2454C351.233 99.2374 357.305 99.0872 358.988 99.2842C358.573 112.176 358.765 125.154 358.395 137.988L329 137.69L329.31 99.2812Z" fill="#EBD936"/>
<path d="M330 60.0623L350 59.5C351.962 59.492 357.817 59.303 359.5 59.5C359.085 72.3923 359.87 86.6657 359.5 99.5H329.5L330 60.0623Z" fill="#EB9736"/>
<path d="M270.62 99.33C279.552 99.0055 290.737 99.2565 299.795 99.2813L299.485 137.69L270.202 137.299C270.147 124.945 270.395 111.701 270.62 99.33Z" fill="#7AB673"/>
<path d="M242.362 61.2295C251.423 61.4377 261.71 60.8267 270.933 60.7292C270.55 71.7347 270.978 82.955 270.623 93.9837C270.568 95.6755 270.535 97.5547 270.575 99.2372L247.721 99.2517C248.336 93.7165 248.779 87.485 241.971 86.277C242.224 77.9302 242.354 69.5802 242.362 61.2295Z" fill="#DD5A55"/>
<path d="M245.704 254.015C247.829 253.788 250.718 258.508 251.323 260.25C252.798 264.508 253.698 268.968 254.765 273.343C256.763 281.393 258.693 289.455 260.558 297.538L264.725 315.285C266.138 321.208 269.418 330.188 265.635 335.89C263.844 338.596 262.976 338.5 256.723 341.118C242.21 347.193 225.935 351.528 211.237 357.408C209.273 358.193 205.816 359.343 203.6 359.55C199.378 359.945 195.576 355.315 195.486 351.26C196.144 342.268 198.526 333.345 200.227 324.548L206.784 290.465C208.133 283.598 208.948 276.665 211.711 270.235C212.026 269.503 212.729 268.923 212.664 268.165C210.998 268.605 209.394 268.678 207.733 269.015C194.683 271.673 181.098 272.263 167.978 269.748C163.826 268.953 159.735 267.03 155.554 266.675C154.281 266.568 152.251 268.52 151.555 269.558C148.939 274.728 147.551 280.958 145.891 286.49C143.166 295.49 140.487 304.503 137.854 313.53C135.593 321.185 131.142 333.418 130.418 341.628C130.378 342.333 131.88 344.703 132.517 344.78C136.832 345.298 145.104 341.988 149.2 340.695C156.786 338.423 164.839 335.783 172.362 333.455C196.508 325.99 196.649 329.243 192.07 304.645L187.571 280.325C187.235 278.565 186.44 275.078 186.362 273.238C186.348 272.903 186.629 272.838 186.996 272.595C187.747 272.513 188.406 272.35 189.085 272.655C189.448 273.7 189.99 277.03 190.216 278.24L192.412 290.105L195.795 308.255C196.955 314.588 200.434 327.405 192.091 330.403C189.207 331.44 185.891 332.378 182.943 333.293L166.178 338.525C156.557 341.533 146.964 344.685 137.311 347.588C134.212 348.49 131.654 349.045 129.158 346.45C124.496 341.605 128.948 331.605 130.664 326.01C132.352 320.518 134.005 315.013 135.624 309.5L142.926 284.923C144.477 279.665 146.072 273.678 148.256 268.673C149.344 266.178 151.426 265.173 153.41 263.46C173.318 271.095 201.419 269.645 221.815 263.645C229.738 261.315 238.113 256.75 245.704 254.015Z" fill="#F1CF72"/>
<path d="M241.745 257.023C245.217 256.833 247.133 258.37 248.206 261.618C249.983 266.998 251.282 272.623 252.61 278.143C254.915 287.683 257.127 297.243 259.25 306.825C260.862 313.935 262.98 320.96 264.207 328.155C264.572 330.298 263.48 334.39 261.435 335.393C255.985 338.068 249.928 339.915 244.173 341.913L217.629 351.263C214.711 352.29 205.049 356.68 201.928 355.38C199.339 354.303 198.834 349.92 199.313 347.125C200.776 338.605 202.614 330.065 204.266 321.538L209.543 294.303C210.781 287.988 212.51 277.175 215.104 271.688C217.222 267.21 236.839 258.435 241.745 257.023Z" fill="#060505"/>
<path d="M260.17 314.317C261.22 319.102 263.727 325.485 263.267 330.357C263.115 331.952 262.597 333.302 261.317 334.307C258.237 336.73 235.752 343.84 230.64 345.637C222.67 348.437 214.733 351.622 206.658 354.085C205.646 354.395 204.097 354.915 203.032 354.715C202.219 354.56 201.353 353.695 200.917 353.037C200.115 351.832 199.93 350.535 200.028 349.125C200.275 345.565 201.124 341.975 201.815 338.475L204.877 322.942C207.707 308.43 210.358 292.97 213.63 278.605L219.68 298.34C220.692 301.75 222.414 308.27 223.651 311.235C224.919 311.625 226.22 311.76 227.535 311.945C227.068 315.32 226.629 321.235 227.927 324.337C228.215 325.88 228.915 327.342 229.689 328.692C235.757 331.827 243.561 329.355 247.376 323.895C248.047 323.32 248.88 322.385 249.362 321.65C253.645 319.145 256.472 317.72 260.17 314.317Z" fill="#FAF8F7"/>
<path d="M234.926 260.98L235.175 261.22C236.123 266.062 244.087 302.487 243.344 304.29C242.421 306.527 237.321 308.895 235.188 309.707C232.193 310.847 227.227 311.635 224.203 310.257L216.714 285.057C215.893 282.275 213.863 277.875 214.664 275.35C217.317 266.987 227.95 264.742 234.926 260.98Z" fill="#767675"/>
<path d="M241.958 258.043C247.633 257.43 248.778 266.3 249.804 270.588C252.43 281.56 255.407 292.623 257.642 303.665C255.495 303.795 253.437 304.13 251.31 304.443C248.915 304.76 246.933 304.888 244.523 305.023C244.667 301.93 242.464 292.26 241.733 288.63L236.073 260.318C238.223 259.37 239.667 258.63 241.958 258.043Z" fill="#FAF8F7"/>
<path d="M227.535 311.945C228.83 314.85 235.795 313.603 238.223 312.558C243.078 310.468 240.778 305.578 246.594 305.755C249.952 305.858 254.192 304.62 257.62 304.59C258.192 306.693 258.732 308.803 259.242 310.92C255.315 314.405 251.487 316.79 247.221 319.758C244.719 321.593 242.409 324.09 239.61 325.48C237.856 326.35 235.208 326.465 233.28 326.44C232.039 326.425 228.498 325.413 228.049 324.228L227.927 324.338C226.629 321.235 227.068 315.32 227.535 311.945Z" fill="#545454"/>
<path d="M244.76 325.28C243.5 326.5 241.445 327.743 239.788 328.393C237.865 329.145 230.872 329.52 230.062 327.213C231.031 326.933 232.513 327.718 233.65 327.74C239.532 327.855 242.75 325.12 246.756 321.375C249.099 319.528 251.742 318.015 254.22 316.338C255.412 315.53 258.455 312.85 259.72 312.943C259.145 315.478 250.5 319.375 249 321.375C247.638 322.225 247 324 244.76 325.28Z" fill="#565757"/>
<path d="M240.726 307.972L240.949 308.177C240.908 308.882 240.262 309.56 239.719 310.097C237.202 312.587 233.59 312.797 230.309 312.795L230.062 312.355C230.299 311.735 230.89 311.8 231.826 311.607C235.857 310.777 237.362 310.1 240.726 307.972Z" fill="#FAF8F7"/>
<path d="M204.359 114.522C205.392 114.946 217.591 137.759 219.356 140.566C212.121 146.396 205.963 152.74 199.852 159.68C198.971 160.681 196.256 163.034 196.056 164.032L196.481 164.215C198.563 163.226 200.736 160.024 202.642 158.33C203.493 159.095 199.272 172.408 200.222 174.55L200.707 174.689C201.386 174.067 203.007 162.569 203.387 160.679C203.985 162.811 204.26 166.066 204.725 168.399C205.815 173.863 207.107 179.131 208.531 184.513C209.723 189.02 213.231 193.413 214.162 197.531C214.748 200.121 214.622 205.407 214.78 208.127C214.876 209.772 214.469 212.328 214.959 213.795L215.341 213.966L215.719 213.609C216.133 209.74 215.933 203.527 215.476 199.652C218.524 203.419 223.497 209.177 225.54 213.437C226.085 214.574 226.116 217.25 225.963 218.534C224.776 228.484 220.675 235.701 213.095 241.952C203.934 221.224 199.758 193.861 184.706 175.929C180.343 170.998 175.133 167.855 168.788 166.038C158.028 162.957 133.125 161.354 123.271 166.758C121.831 164.019 110.178 144.314 109.077 143.293C108.843 144.517 110.578 147.377 111.234 148.559C108.81 146.28 103.148 140.228 101.083 137.649C101.312 135.261 101.125 132.921 101.504 130.528C102.091 126.825 104.168 123.201 106.835 120.592C107.518 119.924 109.836 118.628 110.173 117.964L109.963 117.623C108.898 117.666 106.48 119.394 105.824 120.073C101.695 124.347 100.092 128.948 100.074 134.793C100.072 135.389 99.9527 135.838 99.5254 136.198C97.5022 134.688 99.3169 126.539 100.27 124.432C102.436 119.646 104.844 117.214 109.647 115.295C113.932 117.815 118.544 122.502 123.323 124.692C127.329 126.528 131.409 126.971 135.516 128.398C138.792 129.239 137.113 131.27 138.264 132.887C146.172 143.994 158.255 134.073 167.228 130.588C169.641 129.65 173.498 130.859 174.9 130.37C179.021 128.932 182.695 127.321 186.807 125.874C192.548 122.689 198.361 117.449 204.359 114.522Z" fill="#FAF8F7"/>
<path d="M169.752 130.965L170.184 131.112L170.238 131.447C159.909 138.805 143.244 149.567 134.806 133.589C134.685 132.987 134.74 132.957 134.805 132.342C135.317 132.182 135.608 132.751 135.794 133.148C141.186 144.655 154.072 141.084 162.434 135.287C164.076 134.148 167.661 131.757 169.466 131.071L169.752 130.965Z" fill="#060505"/>
<path d="M151.702 159.108C154.107 158.968 164.023 159.155 165.385 160.855L165.597 160.765C165.289 161.109 162.951 160.92 162.5 160.854C156.786 160.011 152.22 160.046 146.503 160.575C143.795 160.873 134.679 161.7 132.956 159.917L133.154 159.53C134.086 159.29 134.883 159.616 135.831 159.699C141.076 160.16 146.458 159.466 151.702 159.108Z" fill="#060505"/>
<path d="M202.416 116.949C203.477 117.659 215.496 138.67 215.608 140.347C215.335 140.297 214.823 140.159 214.697 139.911C212.973 136.514 202.41 119.544 202.416 116.949Z" fill="#060505"/>
<path d="M178.963 133.329L179.672 133.579C179.909 134.256 179.154 139.324 179.193 140.549C179.262 142.72 180.074 145.574 179.985 147.545C177.521 146.128 177.939 135.683 178.963 133.329Z" fill="#060505"/>
<path d="M123.015 130.603C123.497 130.733 123.296 130.603 123.615 131C123.267 131.962 122.183 132.779 121.496 133.981C119.603 137.294 118.794 139.777 117.763 143.387L117.271 143.346L116.965 142.9C116.964 139.49 120.688 133.224 123.015 130.603Z" fill="#060505"/>
<path d="M159.819 155.356C160.694 155.27 160.336 155.147 160.96 155.627L160.917 156.051C160.221 156.557 151.098 157.012 149.56 157.115L148.928 157.107L148.538 156.682C149.256 155.889 158.227 155.484 159.819 155.356Z" fill="#060505"/>
<path d="M176.814 133.37C177.289 133.505 177.1 133.372 177.387 133.758C176.781 135.925 175.827 138.134 175.161 140.36L174.613 139.95C174.387 138.244 175.803 134.763 176.814 133.37Z" fill="#060505"/>
<path d="M271.085 200.608C279.517 200.216 284.57 204.211 286.677 212.384C288.807 220.648 289.062 229.247 289.8 237.702C291.275 254.62 292.017 271.587 293.325 288.517C293.775 294.475 293.762 300.277 294.435 306.307C290.62 308.562 286.567 310.207 282.132 310.682C279.63 310.95 275.04 311.31 272.982 309.467C270.985 307.677 268.13 282.542 267.18 277.562C266.132 272.07 264.322 266.707 263.457 261.177C262.73 256.51 262.512 251.802 262.115 247.1C261.667 245.187 261.34 242.521 261.037 240.531C263.477 239.557 275.57 232.858 275.897 230.694C274.475 230.619 269.282 234.853 267.617 235.814C259.73 240.366 231.605 255.105 223.556 252.852C218.647 251.477 215.971 247.124 213.635 242.931C221.962 236.019 227.36 226.831 227.27 215.618C227.257 214.067 226.712 212.938 226.178 211.497L226.339 211.18C227.601 210.478 232.504 209.144 234.166 208.679C245.716 205.453 259.16 201.164 271.085 200.608Z" fill="#767675"/>
<path d="M274.085 237.227L274.57 237.461L274.682 237.863C273.602 239.498 268.847 240.343 266.857 240.784C268.082 241.014 271.46 240.839 272.032 242.025C271.217 242.546 270.775 242.485 269.812 242.546C268.555 242.314 265.977 242.083 265.327 240.968C265.887 240.002 272.37 237.935 274.085 237.227Z" fill="#060505"/>
<path d="M227.026 222.237C230.102 222.219 232.151 230.602 231.963 232.932C230.773 232.609 230.624 232.145 230.577 230.903C230.43 226.955 228.645 225.64 227.169 222.545L227.026 222.237Z" fill="#060505"/>
<path d="M149.678 96.2097C154.868 96.6297 159.588 96.6417 164.782 96.4827C168.495 96.4445 172.602 96.9707 176.251 96.305C196.694 92.574 216.705 85.125 237.802 87.8927C241.51 88.3792 242.304 86.0447 246.086 89.4935C249.856 101.689 240.552 111.101 233.318 119.801C228.987 125.009 223.157 131.949 218.229 136.289C214.078 129.517 209.944 121.401 205.889 114.37C208.175 112.663 210.445 110.937 212.7 109.19C215.934 109.381 227.238 110.261 228.624 106.922L228.188 106.771C219.433 109.488 212.402 107.695 203.39 107.693C196.241 107.692 189.269 107.596 182.131 108.499C179.058 108.887 175.716 109.153 172.793 110.264C170.06 111.303 167.056 115.415 164.745 116.438C159.827 118.613 158.051 118.486 153.452 121.639C152.929 121.243 153.096 121.382 152.921 120.55C153.438 118.192 157.052 116.111 159.371 115.954C160.147 115.901 160.836 115.988 161.242 115.288L160.857 114.835C157.581 114.932 159.147 113.736 157.82 112.03C155.256 110.662 148.095 113.929 145.295 113.57C143.668 113.36 136.408 112.825 135.639 112.036L135.658 111.531C136.903 110.581 143.74 111.5 145.529 111.113C148.331 110.509 155.985 110.433 157.557 108.047C157.726 107.112 157.287 104.753 156.122 104.785C150.976 104.922 138.607 107.852 134.155 105.484C133.59 104.754 133.709 105.158 133.795 104.232C135.121 103.175 140.022 104.404 141.943 104.177C144.555 103.869 154.123 103.212 155.17 100.805C155.194 97.303 151.919 97.7742 149.516 98.2872C145.616 99.1192 139.55 99.372 136.281 101.58C135.778 102.005 135.535 102.303 134.888 102.403C133.763 102.801 133.439 103.049 132.681 103.94C131.86 107.505 139.962 107.076 141.744 107.577C144.622 108.388 155.691 104.045 156.663 107.165C156.191 108.166 155.507 108.486 154.409 108.693C151.112 109.315 147.765 109.86 144.423 110.063C141.73 110.227 136.761 109.254 134.532 110.828C134.228 111.537 134.285 111.556 134.393 112.298C135.802 114.735 144.238 114.518 146.982 114.568C148.765 114.601 155.758 112.351 157.011 113.007L157.174 113.613C156.872 114.769 156.524 115.208 155.266 115.552C150.499 116.858 145.571 117.049 140.669 116.627C139.665 116.54 135.751 115.686 135.282 115.984C136.872 117.066 140.161 117.599 142.097 117.928C142.8 118.532 143.626 119.221 143.72 120.119L143.338 120.473C142.069 120.412 141.431 119.618 140.429 119.343C136.058 118.307 133.413 115.321 129.657 113.457C117.967 107.658 104.591 109.637 92.0874 110.1C89.3989 110.2 86.5254 109.123 83.9564 108.771C84.0354 108.907 84.0859 109.016 84.2184 109.112C89.3061 112.785 98.5881 110.67 104.429 110.424C105.566 111.707 107.303 113.221 108.601 114.406C101.917 117.867 97.9391 123.65 97.4656 131.258C92.6274 125.508 87.5684 120.621 82.6181 114.386C78.2811 108.923 72.9061 99.4467 76.6811 92.0837C78.2356 89.558 81.2659 91.6375 83.0491 91.496C96.6134 90.4202 108.583 96.0235 121.515 98.7427C125.666 99.6157 133.591 98.0597 138.247 98.3437C142.669 98.6137 145.927 98.9464 149.678 96.2097Z" fill="#FAF8F7"/>
<path d="M155.562 267.51C157 267.51 168 271.865 185.283 272.337C187.296 286.675 191.237 302.187 193.327 316.56C195.247 327.295 188.954 327.377 180.595 329.905L170.587 333.035L149.788 339.482C146.618 340.477 135.529 344.475 132.897 343.82C131.102 342.527 131.084 340.387 131.527 338.407C132.462 334.23 133.812 330.12 135.061 326.025L139.745 310.195L146.473 287.453C148.006 282.275 149.505 276.917 151.395 271.865C152.253 269.575 153.364 268.485 155.562 267.51Z" fill="#FAF8F7"/>
<path d="M364.888 52.8593C365.958 52.7598 367.68 52.7803 368.803 52.7593C369.16 63.164 368.64 76.739 368.445 87.3463L367.243 144.249C345.16 144.086 323.078 143.766 301 143.288L232.848 142.367C232.956 140.525 232.78 137.88 232.799 135.914C232.841 131.293 232.858 126.622 232.742 122.003C235.46 118.764 238.136 115.49 240.768 112.181C240.614 120.184 240.441 130.257 240.562 138.202C249.98 138.6 260.52 138.47 270.043 138.593C297.51 138.688 324.975 138.982 352.438 139.476L359.443 139.518C359.68 112.276 360.595 84.9805 360.725 57.744L241.515 60.0638C241.103 68.6378 241.145 78.0293 241.013 86.6833C238.094 87.059 236.367 86.833 233.484 86.515C233.698 76.3658 233.617 66.165 233.899 56.0563C248.528 56.0448 264.175 55.337 278.923 55.0448C307.583 54.4645 336.238 53.736 364.888 52.8593Z" fill="#FAF8F7"/>
<path d="M226.879 159.848C229.096 159.53 241.127 159.836 243.837 159.931C253.14 160.256 263.392 159.865 272.57 160.362L272.665 160.563C269.782 161.546 270.345 162.209 270.095 165.231C280.157 165.297 290.555 165.984 300.665 166.017C304.8 166.03 310.075 166.462 314.157 166.179C318.345 165.888 325.13 163.45 329.457 162.473C330.35 162.271 331.545 161.063 332.41 161.043C337.392 160.931 342.73 161.056 347.68 161.121L382.027 161.624L395.342 161.772C397.37 161.791 401.252 161.699 403.01 162.056C396.765 163.142 389.41 164.794 383.237 166.36C374.005 168.199 364.467 171.438 355.077 171.34C350.432 171.292 345.782 171.227 341.137 171.156C327.642 170.967 314.147 170.69 300.655 170.325L243.791 169.387C230.963 169.218 218.631 169.191 205.791 168.748C205.481 167.541 205.078 163.985 204.868 162.591C210.281 162.413 220.849 160.563 226.879 159.848Z" fill="#FAF8F7"/>
<path d="M159.505 55.4403L159.909 55.5983C160.271 56.0453 160.53 56.3548 160.662 56.9421C161.409 60.2801 164.589 58.0121 167.053 60.4941C169.821 63.0376 170.166 66.0438 168.417 69.3063C166.816 72.2941 163.892 73.1526 166.17 76.7573C167.694 79.5241 166.429 82.4676 166.766 85.4878C166.939 87.0321 168.505 89.4676 167.618 90.3421C167.119 90.0578 166.492 88.3333 165.889 87.6791C161.576 82.9941 159.51 88.9323 160.396 92.7486C160.408 93.1533 161.251 94.9616 160.737 95.1286C159.032 95.6828 155.949 95.3173 154.207 95.2463C149.214 95.0426 144.305 94.3991 139.387 93.6753C138.042 93.6386 137.563 93.5163 136.642 94.4933C136.402 95.4308 136.744 96.0538 137.064 97.0003L136.826 97.3068C135.263 97.6233 130.772 97.4831 128.95 97.4676C125.655 92.7916 123.259 87.5206 123.859 81.6428C124.311 77.2048 125.843 75.8721 128.07 72.6348C128.963 70.8936 129.873 69.2116 131.082 67.6918C136.884 60.3941 146.113 61.3093 154.094 58.8433C155.937 58.2741 157.902 56.6991 159.505 55.4403Z" fill="#767675"/>
<path d="M132.425 74.1083L132.761 74.2935C132.888 75.2923 131.42 77.2228 131.081 78.999C130.558 81.7425 132.52 85.306 132.021 86.9323C127.851 84.0085 130.037 77.5155 132.425 74.1083Z" fill="#060505"/>
<path d="M131.912 80.113C133.016 80.4075 134.186 82.328 134.548 83.361C132.481 83.788 132.098 81.716 131.912 80.113Z" fill="#060505"/>
<path d="M227.942 127.474C229.285 129.643 226.777 143.883 228.97 146.465C230.35 148.09 242.091 147.439 244.635 147.536C259.313 148.096 274.24 147.53 288.898 148.227C289.498 151.169 289.918 154.078 290.563 157.073C288.145 157.692 283.103 158.961 280.713 159.109C275.058 159.458 268.64 159.254 262.93 159.204L241.343 158.886C237.015 158.805 231.237 158.565 226.991 158.807C221.856 159.272 216.71 160.219 211.606 160.887C210.057 161.09 205.158 162.305 204.317 160.952C203.945 160.354 204.001 157.693 204.001 156.803C208.623 150.813 214.862 145.912 220.337 140.726L218.757 137.18C221.714 134.292 225.031 130.559 227.942 127.474Z" fill="#FAF8F7"/>
<path d="M206.054 169.814C209.631 169.676 215.455 169.994 219.2 170.065L247.855 170.592L359.457 172.497C359.517 174.959 359.365 177.143 359.212 179.597C339.162 179.44 318.885 178.59 298.812 178.332L244.927 177.308C232.729 177.087 219.521 177.15 207.384 176.569C206.873 174.331 206.429 172.079 206.054 169.814Z" fill="#FAF8F7"/>
<path d="M353.805 180.533C355.43 180.605 357.13 180.623 358.763 180.665C358.325 216.889 358.598 253.797 358.64 290.072L358.688 321.342C358.695 327.115 358.832 333.355 358.622 339.07C352.602 341.302 353.743 336.587 353.753 332.647L353.755 322.362L353.763 287.442C353.77 252.095 353.365 215.816 353.805 180.533Z" fill="#FAF8F7"/>
<path d="M401.578 170.802C401.973 170.719 402.098 170.739 402.503 170.729C402.878 171.3 402.723 178.348 402.718 179.631L402.623 203.468L402.648 288.993C402.65 291.52 402.95 314.263 402.438 315.22C401.763 315.823 400.995 315.815 400.063 315.96C399.31 315.795 399.158 315.708 398.453 315.373C398.158 314.983 398.04 314.808 398.04 314.3C398.038 309.1 398.088 303.848 398.108 298.653L398.155 268.133L398.2 171.58L401.578 170.802Z" fill="#FAF8F7"/>
<path d="M192.876 108.855C197.098 108.421 207.171 108.833 211.512 109.042C209.68 110.114 207.638 111.936 205.785 113.087C204.78 113.711 203.258 113.695 202.338 114.198C196.308 117.496 190.117 123.59 183.755 126.035C179.399 126.773 179.568 127.546 175.743 128.905C174.655 129.292 170.564 129.022 169.219 128.991C168.531 125.013 168.373 122.204 168.599 118.165C172.138 115.573 174.134 115.169 175.357 110.441C181.442 109.712 186.784 109.261 192.876 108.855Z" fill="#FAF8F7"/>
<path d="M207.697 177.708C214.624 177.74 221.551 177.828 228.476 177.973C228.547 185.144 228.576 192.315 228.565 199.486C228.564 201.57 228.688 207.665 228.414 209.404C227.248 209.644 226.132 209.921 224.978 210.207C222.564 207.131 218.896 203.021 216.899 199.897C212.704 193.332 209.602 185.141 207.697 177.708Z" fill="#FAF8F7"/>
<path d="M233.102 54.9877C232.694 56.98 232.733 59.119 232.739 61.1507C232.757 67.4775 232.546 73.7995 232.377 80.1235C232.329 81.9177 233.051 84.9742 231.856 86.2745C231.162 86.2905 230.715 86.373 230.099 86.0617C229.764 83.9645 230.135 75.7802 230.203 73.3315C230.29 70.1697 229.907 54.3005 230.816 53.0085C231.591 52.4895 232.061 52.407 233.01 52.39C244.546 52.1837 256.115 51.9077 267.65 51.6362L325.867 50.127L353.635 49.5385C358.325 49.404 367.512 48.8915 371.747 49.2965C373.405 50.5457 372.78 55.2607 372.81 57.3197C372.435 57.012 370.792 56.5517 369.902 56.092C370.032 54.2557 369.972 53.639 369.745 51.7937C364.96 51.4727 357.235 51.9412 352.147 52.0332L311.337 53.027L261.945 54.1762C255.64 54.3187 249.338 54.4982 243.037 54.7147C239.942 54.8035 236.124 54.7572 233.102 54.9877Z" fill="#FAF8F7"/>
<path d="M231.769 123.224C231.764 126.518 231.412 141.357 232.107 143.255C233.76 144.096 258.187 144.002 261.962 144.054L320.415 144.786L348.995 145.046C354.817 145.144 362.517 145.559 368.182 145.226C368.15 145.99 368.1 146.753 368.035 147.515C368.647 148.081 369.082 147.94 370.07 148.036C368.3 148.338 358.372 148.116 355.997 148.093C343.947 148.003 331.902 147.774 319.86 147.405C298.7 146.809 277.507 146.965 256.342 146.533C252.93 146.464 231.573 146.581 229.95 145.716C228.432 143.396 229.243 129.626 229.302 125.981C229.87 125.218 231.077 123.974 231.769 123.224Z" fill="#FAF8F7"/>
<path d="M173.503 110.937L173.887 111.067L174.014 111.471C173.108 114.112 170.159 115.928 167.883 117.326C167.082 120.756 167.531 125.715 168.107 129.21C159.682 131.189 148.433 142.725 139.779 133.341C139.206 132.656 139.07 132.586 138.949 131.744C139.57 128.963 141.593 126.761 141.498 123.519C141.411 120.562 143.266 122.41 145.103 120.3C146.518 120.156 151.472 119.223 152.198 119.273C152.488 120.697 151.754 122.098 153.129 122.827C154.158 122.658 155.928 121.102 157.105 120.479C159.276 119.331 162.858 118.696 164.81 117.609C167.707 115.995 170.267 112.961 173.213 111.115L173.503 110.937Z" fill="#FAF8F7"/>
<path d="M406.862 162.351C407.262 162.261 407.085 162.298 407.57 162.463C407.92 163.751 407.65 166.049 407.932 167.81L407.977 168.076C392.817 171.829 376.51 175.93 361.317 179.201C360.74 179.229 361.002 179.293 360.502 178.996C360.292 177.64 360.5 174 360.53 172.372C364.28 171.795 370.267 170.244 374.09 169.378L394.622 164.861C398.29 164.043 403.22 162.785 406.862 162.351Z" fill="#FAF8F7"/>
<path d="M105.945 110.312C111.653 110.153 123.85 111.27 128.611 114.15C133.573 117.151 134.915 118.309 140.766 120.502C140.519 123.286 140.165 125.061 139.474 127.703L139.113 128.315C137.979 128.603 136.422 127.322 135.251 127.036C132.585 126.385 128.314 125.157 125.871 124.586C122.398 123.773 106.899 112.219 105.945 110.312Z" fill="#FAF8F7"/>
<path d="M290.145 148.249C298.412 148.719 307.195 148.319 315.532 148.695C316.455 152.096 317.305 155.516 318.08 158.953C309.65 158.508 300.155 158.572 291.632 158.467C291.415 155.483 290.62 151.334 290.145 148.249Z" fill="#FAF8F7"/>
<path d="M369.903 56.092C370.793 56.5518 372.435 57.012 372.81 57.3198L371.808 110.333L371.455 134.637C371.413 137.279 371.625 145.758 370.808 147.659C370.385 148.007 370.575 147.936 370.07 148.036C369.083 147.94 368.648 148.081 368.035 147.515C368.1 146.753 368.15 145.99 368.183 145.226C368.53 142.735 368.473 139.813 368.525 137.263L368.803 125.033L369.705 76.8135C369.8 70.623 369.465 62.057 369.903 56.092Z" fill="#FAF8F7"/>
<path d="M374.14 49.6713C374.863 49.8818 375.875 50.19 375.93 51.121C376.078 53.7185 375.973 56.3583 375.933 58.9623C375.865 63.8253 375.825 68.6885 375.81 73.5518C375.68 89.419 375.405 105.285 374.978 121.147C374.803 129.254 374.655 137.448 374.455 145.562C374.433 146.463 374.22 146.977 373.745 147.735C373.15 147.94 373.195 147.941 372.57 147.87C372.228 147.247 372.248 146.553 372.26 145.845L373.693 78.506C373.905 69.3585 373.595 58.619 374.14 49.6713Z" fill="#FAF8F7"/>
<path d="M316.98 148.479C317.487 148.52 318.612 148.617 318.93 148.919C320.725 150.628 321.342 156.246 321.577 158.515C323.38 158.173 325.527 158.217 327.385 158.188C317.355 162.495 312.972 162.382 302.32 162.139C295.885 161.961 289.452 161.832 283.015 161.75C280.702 161.74 278.342 161.578 276.027 161.452C280.047 160.304 286.207 159.016 290.347 158.261C290.485 158.417 291.102 159.092 291.195 159.115C295.777 160.229 315.91 160.328 319.547 159.621C318.862 157.464 317.207 150.543 316.98 148.479Z" fill="#FAF8F7"/>
<path d="M229.524 177.952L233.894 178.245C233.479 187.217 233.904 196.73 233.794 205.749C233.781 206.799 233.878 207.171 233.26 207.769C232.034 208.146 230.773 208.582 229.55 208.985L229.524 177.952Z" fill="#FAF8F7"/>
<path d="M169.234 90.0065C168.712 88.4348 168.325 87.3623 168.046 85.7118C167.567 82.88 168.408 79.8895 167.314 77.3028C166.832 76.1635 166.342 75.0813 166.411 73.8563C166.81 73.1028 166.526 73.3593 167.243 73.0088C168.542 73.4883 169.368 75.5023 169.964 76.6868C171.633 80.0003 171.757 83.3553 172.565 86.8625C173.246 89.8205 174.206 92.3708 174.506 95.4763C171.707 95.5468 166.172 95.4075 163.303 95.0988C163.022 93.3938 162.512 91.1315 163.121 89.526L163.515 89.2255C163.779 89.6535 163.9 89.8038 164.309 90.097L164.762 90.0365L165.801 89.279C166.2 90.2408 166.17 90.6183 166.923 91.1663C167.781 91.186 168.477 90.5328 169.234 90.0065Z" fill="#FAF8F7"/>
<path d="M271.68 162.594C281.86 162.736 292.038 162.981 302.21 163.33C303.93 163.395 313.228 163.402 314.085 164.097C314.175 164.913 314.26 164.531 313.718 165.255L285.828 164.557C283.378 164.495 272.388 164.654 271.11 163.602L271.123 163.081L271.68 162.594Z" fill="#FAF8F7"/>
<path d="M291.428 309.252L291.79 309.527C291.973 310.51 291.633 311.255 290.958 311.972C287.54 315.585 282.46 315.445 278.12 314.115C277.385 313.592 276.613 313.042 276.905 312.07C278.013 311.675 281.843 311.937 283.348 311.712C286.375 311.265 288.648 310.367 291.428 309.252Z" fill="#FAF8F7"/>
<path d="M136.282 101.58C139.233 102.067 151.194 97.2532 153.977 99.7702L154.182 100.343C153.415 101.79 150.809 101.588 149.351 101.978C144.925 103.162 139.338 103.669 134.889 102.403C135.536 102.303 135.779 102.005 136.282 101.58Z" fill="#FAF8F7"/>
<path d="M329.03 158.755C330.045 159.006 329.725 158.776 330.313 159.535C330.408 161.083 329.208 161.553 327.83 161.944C324.153 162.988 320.26 163.872 316.553 164.768C316.273 164.809 315.533 164.866 315.28 164.786L315.12 164.29C316.09 162.728 326.58 159.586 329.03 158.755Z" fill="#FAF8F7"/>
<path d="M137.563 95.0227C138.78 94.8657 146.194 95.3714 146.83 96.1659L146.449 96.4334C144.005 97.2952 138.384 98.5537 137.563 95.0227Z" fill="#FAF8F7"/>
<path d="M164.763 90.0365L164.662 89.4493C164.146 88.9443 163.855 88.4575 163.279 88.1055L162.844 88.301C160.611 91.0755 163.35 93.264 162.924 94.93L162.448 95.1505C160.493 94.2378 160.606 88.8813 162.331 87.2523C164.276 86.6365 164.851 87.808 165.802 89.279L164.763 90.0365Z" fill="#FAF8F7"/>
<path d="M154.251 116.578L154.387 116.846C153.076 118.67 146.311 119.026 144.162 118.734L144.109 118.245C144.188 118.11 144.266 117.974 144.344 117.839C146.152 117.971 148.304 117.82 150.05 117.621C151.577 117.446 152.879 117.009 154.251 116.578Z" fill="#BBB9B7"/>
</svg>
